Coordinates
version=1
nRows=54
nColumns=12
inDegrees=yes

Units are S.I. units (second, meters, Newtons, ...)
Angles are in degrees

endheader
time	SC_y	SC_z	SC_x	AC_y	AC_z	AC_x	GH_y	GH_z	GH_yy	EL_x	PS_y
       0.0              -24.68          20.37           63.5          31.05           1.92           3.46         -170.5          22.54          107.6          16.89          93.87
  0.008877              -24.68          20.37          63.51          31.05          1.918          3.461         -170.5          22.55          107.6          16.89          93.86
   0.01775              -24.69          20.37          63.51          31.05          1.916          3.463         -170.4          22.56          107.6          16.89          93.85
   0.02663              -24.69          20.37          63.51          31.06          1.914          3.464         -170.4          22.57          107.6          16.89          93.85
   0.03551              -24.69          20.37          63.52          31.06          1.912          3.466         -170.3          22.59          107.6          16.88          93.84
   0.04439               -24.7          20.37          63.52          31.07          1.909          3.468         -170.3           22.6          107.6          16.88          93.83
   0.05326               -24.7          20.37          63.53          31.07          1.907           3.47         -170.2          22.61          107.6          16.88          93.82
   0.06214               -24.7          20.37          63.53          31.07          1.904          3.473         -170.2          22.63          107.6          16.88          93.81
   0.07102              -24.71          20.37          63.54          31.08          1.901          3.475         -170.1          22.64          107.6          16.87          93.81
   0.07989              -24.71          20.37          63.54          31.08          1.898          3.477         -170.1          22.66          107.6          16.87           93.8
   0.08877              -24.72          20.37          63.55          31.09          1.895           3.48         -170.0          22.67          107.6          16.87          93.78
   0.09765              -24.73          20.37          63.55           31.1          1.891          3.483         -169.9          22.69          107.7          16.87          93.77
    0.1065              -24.73          20.37          63.56           31.1          1.888          3.486         -169.8          22.71          107.7          16.86          93.76
    0.1154              -24.74          20.37          63.57          31.11          1.883           3.49         -169.8          22.74          107.7          16.86          93.75
    0.1243              -24.75          20.37          63.57          31.12          1.879          3.494         -169.7          22.76          107.7          16.85          93.73
    0.1332              -24.75          20.37          63.58          31.13          1.874          3.498         -169.6          22.78          107.7          16.85          93.72
     0.142              -24.76          20.38          63.59          31.14          1.869          3.502         -169.4          22.81          107.7          16.84           93.7
    0.1509              -24.77          20.38           63.6          31.15          1.863          3.507         -169.3          22.84          107.7          16.84          93.68
    0.1598              -24.78          20.38          63.61          31.16          1.857          3.512         -169.2          22.88          107.8          16.83          93.66
    0.1687               -24.8          20.38          63.62          31.17           1.85          3.518         -169.1          22.91          107.8          16.83          93.64
    0.1775              -24.81          20.38          63.64          31.18          1.842          3.524         -168.9          22.95          107.8          16.82          93.61
    0.1864              -24.82          20.38          63.65           31.2          1.834          3.531         -168.7           23.0          107.8          16.81          93.59
    0.1953              -24.84          20.38          63.66          31.21          1.825          3.539         -168.5          23.04          107.9          16.81          93.56
    0.2042              -24.85          20.38          63.68          31.23          1.815          3.547         -168.3           23.1          107.9           16.8          93.52
     0.213              -24.87          20.38           63.7          31.25          1.803          3.557         -168.1          23.16          107.9          16.79          93.49
    0.2219              -24.89          20.39          63.72          31.27          1.791          3.567         -167.8          23.22          108.0          16.77          93.45
    0.2308              -24.92          20.39          63.75           31.3          1.777          3.579         -167.6           23.3          108.0          16.76           93.4
    0.2397              -24.94          20.39          63.77          31.33          1.761          3.592         -167.2          23.38          108.0          16.75          93.35
    0.2486              -24.97          20.39           63.8          31.36          1.743          3.607         -166.9          23.48          108.1          16.73          93.29
    0.2574              -25.01          20.39          63.84          31.39          1.722          3.624         -166.4          23.59          108.2          16.71          93.22
    0.2663              -25.05           20.4          63.88          31.43          1.699          3.644         -166.0          23.71          108.2          16.69          93.15
    0.2752              -25.09           20.4          63.92          31.48          1.672          3.666         -165.4          23.85          108.3          16.67          93.06
    0.2841              -25.14           20.4          63.98          31.53          1.642          3.692         -164.8          24.01          108.4          16.64          92.96
    0.2929               -25.2          20.41          64.04           31.6          1.606          3.722         -164.0           24.2          108.5          16.61          92.84
    0.3018              -25.27          20.41          64.11          31.67          1.564          3.757         -163.2          24.42          108.6          16.57          92.71
    0.3107              -25.35          20.42          64.19          31.76          1.514          3.798         -162.2          24.68          108.8          16.53          92.55
    0.3196              -25.45          20.43          64.29          31.86          1.456          3.847         -160.9          24.99          109.0          16.47          92.35
    0.3285              -25.57          20.44          64.41          31.98          1.385          3.906         -159.5          25.37          109.2          16.41          92.13
    0.3373              -25.71          20.45          64.55          32.13            1.3          3.977         -157.7          25.82          109.4          16.33          91.85
    0.3462              -25.88          20.46          64.73          32.32          1.196          4.064         -155.6          26.37          109.7          16.24          91.51
    0.3551               -26.1          20.48          64.95          32.54          1.068          4.172         -153.0          27.04          110.1          16.13          91.09
     0.364              -26.36           20.5          65.22          32.82         0.9075          4.305         -149.7          27.89          110.6          15.98          90.57
    0.3728               -26.7          20.52          65.56          33.17         0.7057          4.474         -145.5          28.96          111.2           15.8          89.91
    0.3817              -27.13          20.56           66.0          33.62         0.4492          4.688         -140.2          30.31          112.0          15.57          89.08
    0.3906              -27.67           20.6          66.55           34.2          0.121          4.962         -133.5          32.04          113.0          15.28          88.01
    0.3995              -28.38          20.65          67.27          34.94        -0.3003          5.314         -124.8          34.27          114.3           14.9          86.64
    0.4083              -29.27          20.72          68.18          35.88        -0.8384          5.764         -113.7          37.11          115.9          14.42          84.89
    0.4172               -30.4           20.8          69.32          37.07         -1.515          6.329         -99.81          40.68          117.9          13.81          82.68
    0.4261              -31.77          20.91          70.72          38.51         -2.339          7.018         -82.84          45.04          120.4          13.07           80.0
     0.435              -33.36          21.03          72.34          40.19         -3.295          7.817         -63.17          50.09          123.3          12.21          76.89
    0.4439              -35.09          21.16          74.09           42.0          -4.33          8.681         -41.87          55.55          126.4          11.29          73.52
    0.4527              -36.81          21.29          75.85          43.81         -5.365          9.546         -20.57          61.02          129.5          10.36          70.15
    0.4616               -38.4          21.41          77.47          45.49         -6.321          10.34        -0.8982          66.07          132.4          9.501          67.04
    0.4705              -39.78          21.51          78.86          46.93         -7.145          11.03          16.07          70.42          134.9          8.762          64.36
